<?xml version="1.0" encoding="UTF-8"?>
<svg id="Layer_1" data-name="Layer 1" xmlns="http://www.w3.org/2000/svg" viewBox="0 0 792 612">
  <defs>
    <style>
      .cls-1 {
        fill: #931936;
      }

      .cls-2 {
        fill: #2e3168;
      }
    </style>
  </defs>
  <path class="cls-1" d="M471.17,181.3c-37.55,.41-68.24-29.32-68.68-66.51-.44-37.44,29.63-67.77,67.63-68.21,37.26-.43,68.08,29.73,68.34,66.88,.26,37.29-29.64,67.44-67.29,67.84Z"/>
  <path class="cls-2" d="M639.87,206.57c-22.83-23.46-60.5-23.48-83.36-.05-14.38,14.74-38.18,38.9-54.65,55.74-31.23-31-62.47-62-93.77-92.93-20.15-19.92-50-20.04-70.22-.09-40.92,40.37-81.68,80.91-122.49,121.4-1.03,1.03-1.82,2.31-1.69,2.14,2.7,2.79,5.37,5.55,8.04,8.3,19.22,19.85,51.17,19.57,70.03-.72l71.38-70.29c1.31-1.29,5.8-5.61,9.7-9.99,30.51,30.32,61.01,60.65,91.66,90.82,20.05,19.74,52.25,19.68,72.24-.11,22.73-22.5,45.47-44.98,68.13-67.56,12.15-12.11,24.14-24.38,35.64-36.02l-.63-.65Zm-119.91,74.91c.16-.12,.32-.24,0,0h0Z"/>
  <path class="cls-2" d="M237.32,434.93l-2.96-3.07c-22.07-22.86-58.65-22.93-80.82-.18-.68,.7-1.36,1.39-2.03,2.09-.07-.09,.34,.57,.88,1.11,17.54,17.39,34.81,35.05,52.71,52.05,19.02,18.07,48.99,16.92,68-1.93,30.18-29.93,60.38-59.85,90.51-89.83,3.82-3.8,7.26-7.97,11.41-12.54,22.91,23.51,45.08,46.26,66.79,68.55l-6.55,26.43c-8.67,32.07,10.4,65.07,42.51,73.57,.04,0,.04,.02,.04,.03,1.53-5.08,3.3-8.39,3.97-13.81,2.71-21.82,7.85-43.34,16.7-63.47,11.29-25.69,8.07-46.3-9.82-63.91-37.86-37.26-75.54-74.72-113.26-112.13l-76.4,73.68c-20.39,20.94-40.89,41.99-61.68,63.35Z"/>
</svg>